<?xml version="1.0" encoding="utf-8"?>
<!-- Generator: Adobe Illustrator 24.0.2, SVG Export Plug-In . SVG Version: 6.00 Build 0)  -->
<svg version="1.1" id="Layer_1" xmlns="http://www.w3.org/2000/svg" xmlns:xlink="http://www.w3.org/1999/xlink" x="0px" y="0px"
	 width="2048px" height="2048px" viewBox="0 0 2048 2048" style="enable-background:new 0 0 2048 2048;" xml:space="preserve">
<g id="grid_x5F_layout">
	<g id="icon_x5F_layout">
		<g>
			<path style="fill:#CECECE;" d="M127,1v126H1V1H127 M128,0H0v128h128V0L128,0z"/>
		</g>
		<g>
			<g>
				<path style="fill:#CECECE;" d="M64,1c34.7,0,63,28.3,63,63s-28.3,63-63,63S1,98.7,1,64S29.3,1,64,1 M64,0C28.7,0,0,28.7,0,64
					s28.7,64,64,64s64-28.7,64-64S99.3,0,64,0L64,0z"/>
			</g>
		</g>
		<line style="fill:none;stroke:#CECECE;stroke-miterlimit:10;" x1="128" y1="0" x2="0" y2="128"/>
		<line style="fill:none;stroke:#CECECE;stroke-miterlimit:10;" x1="0" y1="0" x2="128" y2="128"/>
		<g>
			<path style="fill:#CECECE;" d="M108,20v88H20V20H108 M109,19H19v90h90V19L109,19z"/>
		</g>
		<g>
			<path style="fill:#CECECE;" d="M64,20c24.3,0,44,19.7,44,44s-19.7,44-44,44S20,88.3,20,64S39.7,20,64,20 M64,19
				c-24.8,0-45,20.2-45,45s20.2,45,45,45s45-20.2,45-45S88.8,19,64,19L64,19z"/>
		</g>
		<line style="fill:none;stroke:#CECECE;stroke-miterlimit:10;" x1="63.9" y1="0.1" x2="63.9" y2="128"/>
		<line style="fill:none;stroke:#CECECE;stroke-miterlimit:10;" x1="32" y1="0" x2="32" y2="128"/>
		<line style="fill:none;stroke:#CECECE;stroke-miterlimit:10;" x1="96" y1="0" x2="96" y2="128"/>
		<line style="fill:none;stroke:#CECECE;stroke-miterlimit:10;" x1="128" y1="64" x2="0" y2="64"/>
		<line style="fill:none;stroke:#CECECE;stroke-miterlimit:10;" x1="128" y1="32" x2="0" y2="32"/>
		<line style="fill:none;stroke:#CECECE;stroke-miterlimit:10;" x1="128" y1="96" x2="0" y2="96"/>
		<g>
			<path style="fill:#CECECE;" d="M64,33c17.1,0,31,13.9,31,31S81.1,95,64,95S33,81.1,33,64S46.9,33,64,33 M64,32
				c-17.7,0-32,14.3-32,32s14.3,32,32,32s32-14.3,32-32S81.7,32,64,32L64,32z"/>
		</g>
		<g>
			<path style="fill:#CECECE;" d="M64,49c8.3,0,15,6.7,15,15s-6.7,15-15,15s-15-6.7-15-15S55.7,49,64,49 M64,48c-8.8,0-16,7.2-16,16
				s7.2,16,16,16s16-7.2,16-16S72.8,48,64,48L64,48z"/>
		</g>
	</g>
	<g id="icon_x5F_layout_1_">
		<g>
			<path style="fill:#CECECE;" d="M255,1v126H129V1H255 M256,0H128v128h128V0L256,0z"/>
		</g>
		<g>
			<g>
				<path style="fill:#CECECE;" d="M192,1c34.7,0,63,28.3,63,63s-28.3,63-63,63s-63-28.3-63-63S157.3,1,192,1 M192,0
					c-35.4,0-64,28.7-64,64s28.6,64,64,64s64-28.7,64-64S227.4,0,192,0L192,0z"/>
			</g>
		</g>
		<line style="fill:none;stroke:#CECECE;stroke-miterlimit:10;" x1="256" y1="0" x2="128" y2="128"/>
		<line style="fill:none;stroke:#CECECE;stroke-miterlimit:10;" x1="128" y1="0" x2="256" y2="128"/>
		<g>
			<path style="fill:#CECECE;" d="M236,20v88h-88V20H236 M237,19h-90v90h90V19L237,19z"/>
		</g>
		<g>
			<path style="fill:#CECECE;" d="M192,20c24.3,0,44,19.7,44,44s-19.7,44-44,44s-44-19.7-44-44S167.7,20,192,20 M192,19
				c-24.9,0-45,20.2-45,45s20.1,45,45,45s45-20.2,45-45S216.9,19,192,19L192,19z"/>
		</g>
		<line style="fill:none;stroke:#CECECE;stroke-miterlimit:10;" x1="191.9" y1="0.1" x2="191.9" y2="128"/>
		<line style="fill:none;stroke:#CECECE;stroke-miterlimit:10;" x1="160" y1="0" x2="160" y2="128"/>
		<line style="fill:none;stroke:#CECECE;stroke-miterlimit:10;" x1="224" y1="0" x2="224" y2="128"/>
		<line style="fill:none;stroke:#CECECE;stroke-miterlimit:10;" x1="256" y1="64" x2="128" y2="64"/>
		<line style="fill:none;stroke:#CECECE;stroke-miterlimit:10;" x1="256" y1="32" x2="128" y2="32"/>
		<line style="fill:none;stroke:#CECECE;stroke-miterlimit:10;" x1="256" y1="96" x2="128" y2="96"/>
		<g>
			<path style="fill:#CECECE;" d="M192,33c17.1,0,31,13.9,31,31s-13.9,31-31,31s-31-13.9-31-31S174.9,33,192,33 M192,32
				c-17.7,0-32,14.3-32,32s14.3,32,32,32s32-14.3,32-32S209.7,32,192,32L192,32z"/>
		</g>
		<g>
			<path style="fill:#CECECE;" d="M192,49c8.3,0,15,6.7,15,15s-6.7,15-15,15s-15-6.7-15-15S183.7,49,192,49 M192,48
				c-8.8,0-16,7.2-16,16s7.2,16,16,16s16-7.2,16-16S200.8,48,192,48L192,48z"/>
		</g>
	</g>
</g>
<g id="icons">
	<g id="icon-3dprinter">
		<path style="fill:none;stroke:#000000;stroke-width:2;stroke-miterlimit:10;" d="M101,109H27c-4.4,0-8-3.6-8-8V27c0-4.4,3.6-8,8-8
			h74c4.4,0,8,3.6,8,8v74C109,105.4,105.4,109,101,109z"/>
		<path style="fill:none;stroke:#000000;stroke-width:2;stroke-miterlimit:10;" d="M100,88H28c-2.2,0-4-1.8-4-4V28c0-2.2,1.8-4,4-4
			h72c2.2,0,4,1.8,4,4v56C104,86.2,102.2,88,100,88z"/>
		<path style="fill:none;stroke:#000000;stroke-width:2;stroke-miterlimit:10;" d="M36,96h-8c-2.2,0-4,1.8-4,4l0,0c0,2.2,1.8,4,4,4
			h8c2.2,0,4-1.8,4-4l0,0C40,97.8,38.2,96,36,96z"/>
		<path style="fill:none;stroke:#000000;stroke-width:2;stroke-miterlimit:10;" d="M100,96L100,96c-2.2,0-4,1.8-4,4l0,0
			c0,2.2,1.8,4,4,4l0,0c2.2,0,4-1.8,4-4l0,0C104,97.8,102.2,96,100,96z"/>
		<path style="fill:none;stroke:#000000;stroke-width:2;stroke-miterlimit:10;" d="M88,96L88,96c-2.2,0-4,1.8-4,4l0,0
			c0,2.2,1.8,4,4,4l0,0c2.2,0,4-1.8,4-4l0,0C92,97.8,90.2,96,88,96z"/>
		
			<line style="fill:none;stroke:#000000;stroke-width:2;stroke-linecap:round;stroke-miterlimit:10;" x1="32" y1="83.9" x2="96" y2="83.9"/>
		<path style="fill:none;stroke:#000000;stroke-width:2;stroke-linecap:round;stroke-miterlimit:10;" d="M90,72"/>
		<path style="fill:none;stroke:#000000;stroke-width:2;stroke-linecap:round;stroke-miterlimit:10;" d="M38,64"/>
		<path style="fill:none;stroke:#000000;stroke-width:2;stroke-linecap:round;stroke-miterlimit:10;" d="M64,56c0,2.2,1.8,4,4,4h18
			c2.2,0,4,1.8,4,4l0,0c0,2.2-1.8,4-4,4H42c-2.2,0-4,1.8-4,4l0,0c0,2.2,1.8,4,4,4h17.8c2.2,0,4,1.8,4,4l0,0"/>
		
			<polygon style="fill:none;stroke:#000000;stroke-width:2;stroke-linecap:round;stroke-linejoin:round;stroke-miterlimit:10;" points="
			69.1,46.7 64,51.8 58.9,46.7 58.9,39.2 69.1,39.2 		"/>
		
			<line style="fill:none;stroke:#000000;stroke-width:2;stroke-linecap:round;stroke-miterlimit:10;" x1="24" y1="32" x2="55" y2="32"/>
		
			<line style="fill:none;stroke:#000000;stroke-width:2;stroke-linecap:round;stroke-miterlimit:10;" x1="72.7" y1="32" x2="103.5" y2="32"/>
		
			<rect x="55.3" y="27.1" style="fill:none;stroke:#000000;stroke-width:2;stroke-linecap:round;stroke-linejoin:round;stroke-miterlimit:10;" width="17.3" height="12.1"/>
	</g>
	<g id="icon-mill">
		
			<rect x="147.5" y="96" style="fill:none;stroke:#000000;stroke-width:2;stroke-linecap:round;stroke-linejoin:round;stroke-miterlimit:10;" width="89" height="12"/>
		<path style="fill:none;stroke:#000000;stroke-width:2;stroke-linecap:round;stroke-linejoin:round;stroke-miterlimit:10;" d="
			M199.9,72v12.5c0,2.2-1.8,4-4,4h-20.1V80H160v16h64V72L199.9,72z"/>
		<path style="fill:none;stroke:#000000;stroke-width:2;stroke-linecap:round;stroke-linejoin:round;stroke-miterlimit:10;" d="
			M196,54h-8v26c0,2.2,1.8,4,4,4l0,0c2.2,0,4-1.8,4-4V54z"/>
		<path style="fill:none;stroke:#000000;stroke-width:2;stroke-linecap:round;stroke-linejoin:round;stroke-miterlimit:10;" d="
			M216,44h-48c-4.4,0-8-3.6-8-8V20h64v16C224,40.4,220.4,44,216,44z"/>
		<path style="fill:none;stroke:#000000;stroke-width:2;stroke-linecap:round;stroke-linejoin:round;stroke-miterlimit:10;" d="
			M204,44h-24l2.1,7.2c0.5,1.7,2.1,2.8,3.8,2.8h11.3c1.6,0,3.1-1,3.7-2.5L204,44z"/>
		<path style="fill:none;stroke:#000000;stroke-width:2;stroke-linecap:round;stroke-linejoin:round;stroke-miterlimit:10;" d="
			M216,25h-14.5c-2.2,0-4,1.8-4,4v6c0,2.2,1.8,4,4,4H216c2.2,0,4-1.8,4-4v-6C220,26.8,218.2,25,216,25z"/>
		
			<line style="fill:none;stroke:#000000;stroke-width:2;stroke-linecap:round;stroke-linejoin:round;stroke-miterlimit:10;" x1="197.5" y1="32" x2="220" y2="32"/>
		
			<line style="fill:none;stroke:#000000;stroke-width:2;stroke-linecap:round;stroke-linejoin:round;stroke-miterlimit:10;" x1="166.9" y1="25" x2="166.9" y2="31.3"/>
		
			<line style="fill:none;stroke:#000000;stroke-width:2;stroke-linecap:round;stroke-linejoin:round;stroke-miterlimit:10;" x1="170.5" y1="32.7" x2="170.5" y2="39"/>
		
			<line style="fill:none;stroke:#000000;stroke-width:2;stroke-linecap:round;stroke-linejoin:round;stroke-miterlimit:10;" x1="170.5" y1="25" x2="170.5" y2="27.3"/>
		
			<line style="fill:none;stroke:#000000;stroke-width:2;stroke-linecap:round;stroke-linejoin:round;stroke-miterlimit:10;" x1="166.9" y1="36.5" x2="166.9" y2="38.8"/>
		
			<circle style="fill:none;stroke:#000000;stroke-width:2;stroke-linecap:round;stroke-linejoin:round;stroke-miterlimit:10;" cx="178.8" cy="32" r="3"/>
		
			<line style="fill:none;stroke:#000000;stroke-width:2;stroke-linecap:round;stroke-linejoin:round;stroke-miterlimit:10;" x1="188" y1="59.6" x2="196" y2="62.3"/>
		
			<line style="fill:none;stroke:#000000;stroke-width:2;stroke-linecap:round;stroke-linejoin:round;stroke-miterlimit:10;" x1="188" y1="66.8" x2="196" y2="69.5"/>
		
			<line style="fill:none;stroke:#000000;stroke-width:2;stroke-linecap:round;stroke-linejoin:round;stroke-miterlimit:10;" x1="188" y1="74" x2="196" y2="76.7"/>
		
			<line style="fill:none;stroke:#000000;stroke-width:2;stroke-linecap:round;stroke-linejoin:round;stroke-miterlimit:10;" x1="171.9" y1="60.8" x2="176.1" y2="65.5"/>
		
			<line style="fill:none;stroke:#000000;stroke-width:2;stroke-linecap:round;stroke-linejoin:round;stroke-miterlimit:10;" x1="179.6" y1="69.4" x2="181.1" y2="71.1"/>
		
			<line style="fill:none;stroke:#000000;stroke-width:2;stroke-linecap:round;stroke-linejoin:round;stroke-miterlimit:10;" x1="214.7" y1="60.1" x2="209.6" y2="63.8"/>
		
			<line style="fill:none;stroke:#000000;stroke-width:2;stroke-linecap:round;stroke-linejoin:round;stroke-miterlimit:10;" x1="205.4" y1="66.8" x2="203.5" y2="68.2"/>
		
			<line style="fill:none;stroke:#000000;stroke-width:2;stroke-linecap:round;stroke-linejoin:round;stroke-miterlimit:10;" x1="207.4" y1="52.7" x2="204.1" y2="58.1"/>
		
			<line style="fill:none;stroke:#000000;stroke-width:2;stroke-linecap:round;stroke-linejoin:round;stroke-miterlimit:10;" x1="201.4" y1="62.5" x2="200.2" y2="64.4"/>
		
			<line style="fill:none;stroke:#000000;stroke-width:2;stroke-linecap:round;stroke-linejoin:round;stroke-miterlimit:10;" x1="166.1" y1="68.8" x2="171.5" y2="72"/>
		
			<line style="fill:none;stroke:#000000;stroke-width:2;stroke-linecap:round;stroke-linejoin:round;stroke-miterlimit:10;" x1="176" y1="74.7" x2="178" y2="75.8"/>
	</g>
</g>
</svg>
